<svg width="235" height="237" viewBox="0 0 235 237" fill="none" xmlns="http://www.w3.org/2000/svg">
<path d="M9.00271 234.443C6.75018 232.191 6.75018 228.539 9.00271 226.286L85.6982 149.591C87.9507 147.338 91.6028 147.338 93.8553 149.591C96.1079 151.843 96.1079 155.495 93.8553 157.748L17.1598 234.443C14.9073 236.696 11.2552 236.696 9.00271 234.443Z" fill="url(#paint0_linear_5_132)"/>
<path fill-rule="evenodd" clip-rule="evenodd" d="M115.854 235.398C179.388 235.398 230.892 183.894 230.892 120.36C230.892 56.8263 179.388 5.32202 115.854 5.32202C52.3203 5.32202 0.81604 56.8263 0.81604 120.36C0.81604 138.956 5.22829 156.521 13.063 172.066L85.2389 99.8898C87.7693 97.3595 91.8717 97.3595 94.402 99.8898C96.9324 102.42 96.9324 106.523 94.402 109.053L19.7873 183.668C21.5378 186.319 23.3951 188.893 25.353 191.384L118.847 97.8903C120.809 91.0064 127.329 85.0524 135.568 84.4107C148.152 84.3396 154.746 92.8049 154.355 102.733C153.963 112.662 140.82 122.39 126.975 116.346C124.425 113.796 120.291 113.796 117.741 116.346L101.453 132.634C98.9029 135.184 98.9029 139.318 101.453 141.868C104.003 144.418 108.137 144.418 110.687 141.868L113.344 139.309C113.352 139.303 113.36 139.297 113.368 139.291C115.289 137.811 118.471 138.743 120.441 140.713C122.971 143.243 122.971 147.346 120.441 149.876L53.3588 216.958C58.4638 220.268 63.8476 223.184 69.4674 225.663L155.345 139.785C157.875 137.255 161.978 137.255 164.508 139.785C167.038 142.316 167.038 146.418 164.508 148.948L82.8598 230.597C93.3113 233.72 104.387 235.398 115.854 235.398ZM109.915 51.3988C113.587 50.8362 116.107 47.4035 115.545 43.7317C114.982 40.0598 111.549 37.5393 107.877 38.102C76.9785 42.8365 48.897 63.8942 36.0839 89.5203C34.4227 92.8428 35.7694 96.8829 39.0919 98.5442C42.4144 100.205 46.4545 98.8587 48.1158 95.5362C58.9597 73.8483 83.2948 55.4777 109.915 51.3988Z" fill="url(#paint1_linear_5_132)"/>
<path d="M217.384 66.2253C217.259 65.9918 217.134 65.7587 217.007 65.5262C205.889 45.0596 188.741 28.3443 167.947 17.765L87.1417 98.5698C89.5291 97.4867 92.4387 97.9267 94.4019 99.8899C96.9322 102.42 96.9322 106.523 94.4019 109.053L19.7871 183.668C19.8833 183.813 19.9798 183.959 20.0766 184.104C21.7417 186.601 23.5019 189.029 25.3519 191.383L25.3529 191.384L118.847 97.8904C120.809 91.0065 127.329 85.0525 135.568 84.4107C148.152 84.3397 154.746 92.805 154.355 102.733C153.963 112.662 140.82 122.39 126.975 116.346C124.425 113.796 120.29 113.796 117.74 116.346L101.453 132.634C98.9027 135.184 98.9027 139.318 101.453 141.868C104.003 144.418 108.137 144.418 110.687 141.868L113.344 139.309L113.368 139.291C115.289 137.811 118.471 138.743 120.441 140.713C122.971 143.243 122.971 147.346 120.441 149.876L53.3586 216.958C53.522 217.064 53.6856 217.17 53.8496 217.275C56.4054 218.914 59.0304 220.454 61.7191 221.89L217.384 66.2253Z" fill="url(#paint2_linear_5_132)"/>
<path d="M217.384 66.2179C234.612 48.5314 238.744 23.4032 229.196 4.4703C210.019 -4.57751 185.008 0.212619 167.78 17.8992L217.384 66.2179Z" fill="url(#paint3_linear_5_132)"/>
<path fill-rule="evenodd" clip-rule="evenodd" d="M229.963 47.2022C228.422 47.373 226.856 47.4607 225.269 47.4607C202.365 47.4607 183.729 29.1878 183.144 6.4251C198.07 -1.36436 215.189 -2.13829 229.196 4.47019C235.659 17.2854 235.854 32.9391 229.963 47.2022Z" fill="#FFEACD"/>
<path fill-rule="evenodd" clip-rule="evenodd" d="M233.735 19.1248C232.817 19.3129 231.866 19.4117 230.892 19.4117C223.111 19.4117 216.803 13.1036 216.803 5.32224C216.803 3.73074 217.066 2.20086 217.553 0.773987C221.586 1.49641 225.499 2.72632 229.196 4.47045C231.509 9.05634 233.019 14.0057 233.735 19.1248Z" fill="#2C30AA"/>
<defs>
<linearGradient id="paint0_linear_5_132" x1="39.4182" y1="5.32202" x2="192.29" y2="236.133" gradientUnits="userSpaceOnUse">
<stop stop-color="#7377F8"/>
<stop offset="1" stop-color="#444692"/>
</linearGradient>
<linearGradient id="paint1_linear_5_132" x1="39.4182" y1="5.32202" x2="192.29" y2="236.133" gradientUnits="userSpaceOnUse">
<stop stop-color="#7377F8"/>
<stop offset="1" stop-color="#444692"/>
</linearGradient>
<linearGradient id="paint2_linear_5_132" x1="187.651" y1="-2.66235e-05" x2="66.3555" y2="221.89" gradientUnits="userSpaceOnUse">
<stop stop-color="#2C30AA"/>
<stop offset="1" stop-color="#111344"/>
</linearGradient>
<linearGradient id="paint3_linear_5_132" x1="187.651" y1="-2.66235e-05" x2="66.3555" y2="221.89" gradientUnits="userSpaceOnUse">
<stop stop-color="#2C30AA"/>
<stop offset="1" stop-color="#111344"/>
</linearGradient>
</defs>
</svg>
